<?xml version="1.0" encoding="utf-8"?>
<!-- Generator: Adobe Illustrator 21.0.0, SVG Export Plug-In . SVG Version: 6.00 Build 0)  -->
<!DOCTYPE svg PUBLIC "-//W3C//DTD SVG 1.1//EN" "http://www.w3.org/Graphics/SVG/1.1/DTD/svg11.dtd">
<svg version="1.1" id="Layer_1" xmlns="http://www.w3.org/2000/svg" xmlns:xlink="http://www.w3.org/1999/xlink" x="0px" y="0px"
	 viewBox="0 0 333.1 43.1" style="enable-background:new 0 0 333.1 43.1;" xml:space="preserve">
<style type="text/css">
	.st0{fill:#FFFFFF;}
</style>
<g>
	<path class="st0" d="M14.4,0.4c0.2,0,0.4,0.2,0.4,0.4v16.6c0,0.2-0.1,0.4-0.4,0.4H10c-0.2,0-0.4-0.1-0.5-0.3L5.2,9.6v7.8
		c0,0.2-0.1,0.4-0.4,0.4H0.4c-0.2,0-0.4-0.2-0.4-0.4V0.8c0-0.2,0.2-0.4,0.4-0.4h4.3c0.2,0,0.5,0.1,0.6,0.3l4.3,7.8V0.8
		c0-0.2,0.2-0.4,0.4-0.4H14.4z"/>
	<path class="st0" d="M35.4,17.4c0.1,0.2,0,0.3-0.2,0.3h-5c-0.2,0-0.4-0.1-0.5-0.3l-0.8-2.6h-4.7l-0.8,2.6c-0.1,0.2-0.3,0.3-0.5,0.3
		h-5c-0.2,0-0.3-0.2-0.2-0.3l5.7-16.6c0.1-0.2,0.4-0.3,0.6-0.3h5.1c0.3,0,0.5,0.2,0.6,0.3L35.4,17.4z M26.6,6.4l-1.4,4.8h2.7
		L26.6,6.4z"/>
	<path class="st0" d="M44.7,0.4c4.4,0,7,2.4,7,6s-2.6,6-7,6h-1v5c0,0.2-0.2,0.4-0.4,0.4h-4.5c-0.2,0-0.4-0.2-0.4-0.4V0.8
		c0-0.2,0.2-0.4,0.4-0.4H44.7z M44.9,7.8c0.9,0,1.5-0.6,1.5-1.5s-0.6-1.5-1.5-1.5h-1.3v3H44.9z"/>
	<path class="st0" d="M68.1,0.4c0.2,0,0.4,0.2,0.4,0.3l-0.4,3.8c0,0.2-0.2,0.4-0.4,0.4H64v12.4c0,0.2-0.2,0.4-0.4,0.4h-4.4
		c-0.2,0-0.4-0.2-0.4-0.4V4.9h-4.2c-0.2,0-0.4-0.2-0.4-0.4V0.8c0-0.2,0.2-0.4,0.4-0.4H68.1z"/>
	<path class="st0" d="M79.8,18c-5.3,0-8.9-3.6-8.9-9c0-5.4,3.6-9,8.9-9s8.9,3.6,8.9,9C88.7,14.4,85.1,18,79.8,18z M79.8,5.1
		c-2.1,0-3.4,1.6-3.4,4s1.4,4,3.4,4c2.1,0,3.4-1.6,3.4-4S81.8,5.1,79.8,5.1z"/>
	<path class="st0" d="M114.8,0.4c0.2,0,0.4,0.2,0.3,0.4l-4.6,16.5c-0.1,0.2-0.3,0.4-0.6,0.4h-4.4c-0.2,0-0.5-0.2-0.6-0.4l-2.3-8.8
		l-2.3,8.8c-0.1,0.2-0.4,0.4-0.6,0.4h-4.4c-0.2,0-0.5-0.2-0.6-0.4L90.5,0.8c-0.1-0.2,0.1-0.4,0.3-0.4h5.6c0.3,0,0.5,0.2,0.6,0.4
		l1.4,7.5l1.9-7.5c0.1-0.3,0.4-0.4,0.7-0.4h3.6c0.3,0,0.6,0.2,0.7,0.4l1.9,7.5l1.4-7.5c0.1-0.2,0.3-0.4,0.6-0.4H114.8z"/>
	<path class="st0" d="M132.7,0.4c0.2,0,0.4,0.2,0.4,0.4v16.6c0,0.2-0.1,0.4-0.4,0.4h-4.3c-0.2,0-0.4-0.1-0.5-0.3l-4.4-7.8v7.8
		c0,0.2-0.1,0.4-0.4,0.4h-4.4c-0.2,0-0.4-0.2-0.4-0.4V0.8c0-0.2,0.2-0.4,0.4-0.4h4.3c0.2,0,0.5,0.1,0.6,0.3l4.3,7.8V0.8
		c0-0.2,0.2-0.4,0.4-0.4H132.7z"/>
	<path class="st0" d="M157.4,17.3c0.1,0.2-0.1,0.4-0.3,0.4h-5.4c-0.3,0-0.5-0.2-0.6-0.4l-2.6-5.5h-0.3v5.5c0,0.2-0.2,0.4-0.4,0.4
		h-4.4c-0.2,0-0.4-0.2-0.4-0.4V0.8c0-0.2,0.2-0.4,0.4-0.4h6.6c3.9,0,6.4,2.3,6.4,5.7c0,2-1.2,4-3.1,4.8L157.4,17.3z M149.8,7.6
		c0.9,0,1.4-0.5,1.4-1.3c0-0.8-0.6-1.3-1.4-1.3h-1.5v2.7H149.8z"/>
	<path class="st0" d="M168.4,18c-5.3,0-8.9-3.6-8.9-9c0-5.4,3.6-9,8.9-9c5.3,0,8.9,3.6,8.9,9C177.3,14.4,173.8,18,168.4,18z
		 M168.4,5.1c-2.1,0-3.4,1.6-3.4,4s1.4,4,3.4,4c2.1,0,3.4-1.6,3.4-4S170.5,5.1,168.4,5.1z"/>
	<path class="st0" d="M190.9,13.2c0.2,0,0.3,0.1,0.3,0.3l-0.4,3.8c0,0.2-0.2,0.4-0.4,0.4h-9c-0.2,0-0.4-0.2-0.4-0.4V0.8
		c0-0.2,0.2-0.4,0.4-0.4h4.4c0.2,0,0.4,0.2,0.4,0.4v12.4H190.9z"/>
	<path class="st0" d="M204.6,13.2c0.2,0,0.3,0.1,0.3,0.3l-0.4,3.8c0,0.2-0.2,0.4-0.4,0.4h-9c-0.2,0-0.4-0.2-0.4-0.4V0.8
		c0-0.2,0.2-0.4,0.4-0.4h4.4c0.2,0,0.4,0.2,0.4,0.4v12.4H204.6z"/>
	<path class="st0" d="M220.5,13.2c0.2,0,0.4,0.1,0.4,0.3v3.8c0,0.2-0.2,0.4-0.4,0.4h-11.6c-0.2,0-0.4-0.2-0.4-0.4V0.8
		c0-0.2,0.1-0.3,0.4-0.3h11.4c0.2,0,0.4,0.2,0.4,0.3v3.8c0,0.2-0.2,0.4-0.4,0.4h-6.5v2h5.3c0.2,0,0.4,0.2,0.3,0.3l-0.4,3.5
		c0,0.2-0.2,0.3-0.4,0.3h-4.9v2.1H220.5z"/>
	<path class="st0" d="M239.1,17.3c0.1,0.2-0.1,0.4-0.3,0.4h-5.4c-0.3,0-0.5-0.2-0.6-0.4l-2.6-5.5h-0.3v5.5c0,0.2-0.2,0.4-0.4,0.4
		h-4.4c-0.2,0-0.4-0.2-0.4-0.4V0.8c0-0.2,0.2-0.4,0.4-0.4h6.6c3.9,0,6.4,2.3,6.4,5.7c0,2-1.2,4-3.1,4.8L239.1,17.3z M231.4,7.6
		c0.9,0,1.4-0.5,1.4-1.3c0-0.8-0.6-1.3-1.4-1.3h-1.5v2.7H231.4z"/>
	<path class="st0" d="M254.4,0.4c5.3,0,8.8,3.4,8.8,8.6c0,5.2-3.5,8.6-8.8,8.6h-5.8c-0.2,0-0.4-0.2-0.4-0.4V0.8
		c0-0.2,0.2-0.4,0.4-0.4H254.4z M254.7,13.2c1.9,0,3.2-1.7,3.2-4.1s-1.3-4.1-3.2-4.1h-1.3v8.3H254.7z"/>
	<path class="st0" d="M279.2,13.2c0.2,0,0.4,0.1,0.4,0.3v3.8c0,0.2-0.2,0.4-0.4,0.4h-11.6c-0.2,0-0.4-0.2-0.4-0.4V0.8
		c0-0.2,0.1-0.3,0.4-0.3h11.4c0.2,0,0.4,0.2,0.4,0.3v3.8c0,0.2-0.2,0.4-0.4,0.4h-6.5v2h5.3c0.2,0,0.4,0.2,0.3,0.3l-0.4,3.5
		c0,0.2-0.2,0.3-0.4,0.3h-4.9v2.1H279.2z"/>
	<path class="st0" d="M297.8,17.3c0.1,0.2-0.1,0.4-0.3,0.4h-5.4c-0.3,0-0.5-0.2-0.6-0.4l-2.6-5.5h-0.3v5.5c0,0.2-0.2,0.4-0.4,0.4
		h-4.4c-0.2,0-0.4-0.2-0.4-0.4V0.8c0-0.2,0.2-0.4,0.4-0.4h6.6c3.9,0,6.4,2.3,6.4,5.7c0,2-1.2,4-3.1,4.8L297.8,17.3z M290.1,7.6
		c0.9,0,1.4-0.5,1.4-1.3c0-0.8-0.6-1.3-1.4-1.3h-1.5v2.7H290.1z"/>
	<path class="st0" d="M309.1,0.4c3.3,0,5.5,2,5.5,4.9c0,1.8-0.9,3.1-2.2,3.5c1.6,0.4,2.6,1.9,2.6,4c0,2.9-2.2,4.9-5.4,4.9h-7.9
		c-0.2,0-0.4-0.2-0.4-0.4V0.8c0-0.2,0.2-0.4,0.4-0.4H309.1z M307.9,7.2c0.8,0,1.3-0.5,1.3-1.2c0-0.7-0.5-1.2-1.3-1.2h-1.6v2.3H307.9
		z M308.4,13.2c0.7,0,1.2-0.5,1.2-1.2c0-0.7-0.5-1.2-1.2-1.2h-2v2.4H308.4z"/>
	<path class="st0" d="M332.8,0.4c0.2,0,0.4,0.2,0.3,0.4l-5.5,10v6.6c0,0.2-0.2,0.4-0.4,0.4h-4.4c-0.2,0-0.4-0.2-0.4-0.4v-6.6
		l-5.5-10c-0.1-0.2,0.1-0.4,0.3-0.4h5.2c0.3,0,0.5,0.2,0.6,0.4l2.1,4.5l2.1-4.5c0.1-0.2,0.3-0.4,0.6-0.4H332.8z"/>
	<path class="st0" d="M76.4,25.4c3.3,0,5.5,2,5.5,4.9c0,1.8-0.9,3.1-2.2,3.5c1.6,0.4,2.6,1.9,2.6,4c0,2.9-2.2,4.9-5.4,4.9h-7.9
		c-0.2,0-0.4-0.2-0.4-0.4V25.8c0-0.2,0.2-0.4,0.4-0.4H76.4z M75.3,32.2c0.8,0,1.3-0.5,1.3-1.2c0-0.7-0.5-1.2-1.3-1.2h-1.6v2.3H75.3z
		 M75.7,38.2c0.7,0,1.2-0.5,1.2-1.2s-0.5-1.2-1.2-1.2h-2v2.4H75.7z"/>
	<path class="st0" d="M100.5,42.3c0.1,0.2-0.1,0.4-0.3,0.4h-5.4c-0.2,0-0.5-0.2-0.6-0.4l-2.6-5.5h-0.3v5.5c0,0.2-0.2,0.4-0.4,0.4
		h-4.4c-0.2,0-0.4-0.2-0.4-0.4V25.8c0-0.2,0.2-0.4,0.4-0.4h6.6c3.9,0,6.4,2.3,6.4,5.7c0,2-1.2,4-3.1,4.8L100.5,42.3z M92.9,32.6
		c0.9,0,1.4-0.5,1.4-1.3c0-0.8-0.6-1.3-1.4-1.3h-1.5v2.7H92.9z"/>
	<path class="st0" d="M120.3,42.4c0.1,0.2,0,0.3-0.2,0.3h-5c-0.2,0-0.4-0.1-0.5-0.3l-0.8-2.6h-4.7l-0.8,2.6
		c-0.1,0.2-0.3,0.3-0.5,0.3h-5c-0.2,0-0.3-0.2-0.2-0.3l5.7-16.6c0.1-0.2,0.4-0.3,0.6-0.3h5.1c0.2,0,0.5,0.2,0.6,0.3L120.3,42.4z
		 M111.5,31.4l-1.4,4.8h2.7L111.5,31.4z"/>
	<path class="st0" d="M137.7,25.4c0.2,0,0.4,0.2,0.4,0.4v16.6c0,0.2-0.2,0.4-0.4,0.4h-4.3c-0.2,0-0.4-0.1-0.5-0.3l-4.4-7.8v7.8
		c0,0.2-0.2,0.4-0.4,0.4h-4.4c-0.2,0-0.3-0.2-0.3-0.4V25.8c0-0.2,0.2-0.4,0.3-0.4h4.3c0.2,0,0.5,0.1,0.6,0.3l4.3,7.8v-7.7
		c0-0.2,0.2-0.4,0.3-0.4H137.7z"/>
	<path class="st0" d="M148.5,25.4c5.3,0,8.8,3.4,8.8,8.6c0,5.2-3.5,8.6-8.8,8.6h-5.8c-0.2,0-0.3-0.2-0.3-0.4V25.8
		c0-0.2,0.2-0.4,0.3-0.4H148.5z M148.8,38.2c1.9,0,3.2-1.7,3.2-4.1s-1.3-4.1-3.2-4.1h-1.3v8.3H148.8z"/>
	<path class="st0" d="M183.3,42.4c0.1,0.2,0,0.3-0.2,0.3h-5c-0.2,0-0.4-0.1-0.5-0.3l-0.8-2.6h-4.7l-0.8,2.6
		c-0.1,0.2-0.3,0.3-0.5,0.3h-5c-0.2,0-0.3-0.2-0.2-0.3l5.7-16.6c0.1-0.2,0.4-0.3,0.6-0.3h5.1c0.2,0,0.5,0.2,0.6,0.3L183.3,42.4z
		 M174.5,31.4l-1.4,4.8h2.7L174.5,31.4z"/>
	<path class="st0" d="M187.3,37.5c0.1-0.3,0.3-0.3,0.5-0.2c1.2,0.7,2.5,1.1,3.5,1.2c0.8,0,1.3-0.4,1.3-1c0-1.5-7-1.4-7-6.9
		c0-3.4,2.5-5.6,6.3-5.6c1.8,0,4,0.7,5.6,1.8c0.2,0.1,0.3,0.3,0.2,0.5l-1.6,3.5c-0.1,0.3-0.3,0.3-0.5,0.2c-1.2-0.7-2.7-1.2-3.5-1.3
		c-0.8,0-1.3,0.4-1.3,0.9c0,1.5,7.1,1.4,7.1,6.9c0,3.3-2.6,5.6-6.4,5.6c-2.1,0-4.3-0.7-5.6-1.7c-0.2-0.2-0.3-0.3-0.2-0.5L187.3,37.5
		z"/>
	<path class="st0" d="M203.2,37.5c0.1-0.3,0.3-0.3,0.5-0.2c1.2,0.7,2.5,1.1,3.5,1.2c0.8,0,1.3-0.4,1.3-1c0-1.5-7-1.4-7-6.9
		c0-3.4,2.5-5.6,6.3-5.6c1.8,0,4,0.7,5.6,1.8c0.2,0.1,0.3,0.3,0.2,0.5l-1.6,3.5c-0.1,0.3-0.3,0.3-0.5,0.2c-1.2-0.7-2.7-1.2-3.5-1.3
		c-0.8,0-1.3,0.4-1.3,0.9c0,1.5,7.1,1.4,7.1,6.9c0,3.3-2.6,5.6-6.4,5.6c-2.1,0-4.3-0.7-5.6-1.7c-0.2-0.2-0.3-0.3-0.2-0.5L203.2,37.5
		z"/>
	<path class="st0" d="M229.8,38.2c0.2,0,0.4,0.1,0.4,0.3v3.8c0,0.2-0.2,0.4-0.4,0.4h-11.6c-0.2,0-0.4-0.2-0.4-0.4V25.8
		c0-0.2,0.1-0.3,0.4-0.3h11.4c0.2,0,0.4,0.2,0.4,0.3v3.8c0,0.2-0.2,0.4-0.4,0.4h-6.5v2h5.3c0.2,0,0.4,0.2,0.3,0.3l-0.4,3.5
		c0,0.2-0.2,0.3-0.4,0.3h-4.9v2.1H229.8z"/>
	<path class="st0" d="M247,25.4c0.2,0,0.4,0.2,0.4,0.3l-0.4,3.8c0,0.2-0.2,0.4-0.4,0.4h-3.7v12.4c0,0.2-0.2,0.4-0.4,0.4H238
		c-0.2,0-0.4-0.2-0.4-0.4V30h-4.2c-0.2,0-0.4-0.2-0.4-0.4v-3.8c0-0.2,0.2-0.4,0.4-0.4H247z"/>
	<path class="st0" d="M252.1,37.5c0.1-0.3,0.3-0.3,0.5-0.2c1.2,0.7,2.5,1.1,3.5,1.2c0.8,0,1.3-0.4,1.3-1c0-1.5-7-1.4-7-6.9
		c0-3.4,2.5-5.6,6.3-5.6c1.8,0,4,0.7,5.6,1.8c0.2,0.1,0.3,0.3,0.2,0.5l-1.6,3.5c-0.1,0.3-0.3,0.3-0.5,0.2c-1.2-0.7-2.7-1.2-3.5-1.3
		c-0.8,0-1.3,0.4-1.3,0.9c0,1.5,7.1,1.4,7.1,6.9c0,3.3-2.6,5.6-6.4,5.6c-2.1,0-4.3-0.7-5.6-1.7c-0.2-0.2-0.3-0.3-0.2-0.5L252.1,37.5
		z"/>
</g>
</svg>
