<?xml version="1.0" encoding="utf-8"?>
<!-- Generator: Adobe Illustrator 19.2.1, SVG Export Plug-In . SVG Version: 6.00 Build 0)  -->
<!DOCTYPE svg PUBLIC "-//W3C//DTD SVG 1.1//EN" "http://www.w3.org/Graphics/SVG/1.1/DTD/svg11.dtd">
<svg version="1.1" id="Layer_1" xmlns="http://www.w3.org/2000/svg" xmlns:xlink="http://www.w3.org/1999/xlink" x="0px" y="0px"
	 viewBox="0 0 58 60" style="enable-background:new 0 0 58 60;" xml:space="preserve">
<style type="text/css">
	.st0{fill:#ED1C24;}
</style>
<g>
	<g>
		<path class="st0" d="M56.6,26.4L55,20.8h0.3c0-1.3-0.5-2.3-1.4-3c-0.8-2.5-2-4.6-3.5-6.2c0-0.9-2.2-3.3-6.5-7
			c-1.8-0.7-2.8-1.3-3-1.9c-1.2-1.1-4.4-2-9.7-2.7L31,0.3h-0.2L30.5,0l-4.1,0.5h-0.2l-0.3-0.2l-7.8,1.9c-3.3,1.3-5.9,2.9-7.5,4.9
			c-1.5,0.6-2.9,1.7-4,3.2c-1.1,3.5-2.2,5.4-3.2,5.9C2,18.8,0.9,23.4,0,29.9c0.9,6.3,1.6,9.4,2.2,9.4c1.7,4.1,3.8,7.5,6.2,10.3
			c3,3.2,5.1,5,6.2,5.4c3.7,2.5,6.7,3.8,8.9,3.8l0.3-0.3c1.3,0.7,2.5,1.1,3.5,1.1h1.4l8.6-1.6l0.6,1.1c0.9-1.4,2.1-2.2,3.5-2.2
			l4.9-3.8c5.6-5.1,8.9-10.6,10-16.4c0-3.6,0.6-6.3,1.9-8.1C58,27.6,57.5,26.9,56.6,26.4z M52.9,32.4l-1.6,5.9
			c-1.3,5-3.2,8.3-5.9,10c-5.4,4.7-11.1,7-17.3,7h-0.5L26.2,55l-0.3,0.3c-1.1-0.1-3.6-0.9-7.5-2.4c-5.6-3.4-8.4-5.9-8.4-7.5
			c-2.7-2.8-4.1-5.4-4.1-7.5c-1.2-2.6-1.9-5.2-1.9-7.8l0.8-3.2l-0.3-1.6l0.3-1.3c0.5-4,3.2-8.5,8.1-13.5c4.4-3.4,8.7-5.5,13-6.2
			c-0.2,0.3-0.5,0.5-0.8,0.6c0.2,0.4,0.6,0.6,1,0.4c0.1-0.5,0.3-0.9,0.5-1.2c0.3,0,0.5-0.1,0.8-0.1C27.4,4,27.2,4.1,27,4.1l0.5,0.8
			c-0.2,0.1-0.3,0.2-0.5,0.2l0.5,0.6c-0.4,1-0.5,1.9-0.3,2.7l0.5,0c-0.1-0.9,0.1-1.6,0.9-1.9C28.2,6,28.1,5.5,28,5l0.5,0
			c0.1-0.4,0.1-0.9,0.1-1.2c0.3,0,0.6,0,0.9,0l3.5,0.5c5.8,1.5,9.5,3.6,11,6.2c1.1,0.3,1.6,0.9,1.6,1.9c0.9,0.7,1.4,1.4,1.4,2.2
			c1.1,0.7,2.5,2.8,4.3,6.2H51l0.6,2.7c0.9,1.1,1.3,3.7,1.3,7.8V32.4z"/>
		<path class="st0" d="M29,50.5h-0.4C28.7,50.9,28.9,50.9,29,50.5z"/>
		<path class="st0" d="M39.3,49.7h-0.4C39,50.6,39.2,50.6,39.3,49.7z"/>
		<path class="st0" d="M39.3,48.9v0.4C40.2,49.2,40.2,49.1,39.3,48.9z"/>
		<path class="st0" d="M18.4,50.1c-0.5,0.7-0.4,0.8,0.4,0.4C18.8,50.3,18.6,50.1,18.4,50.1z"/>
		<path class="st0" d="M17.7,39.7c0.4-0.1,0.4-0.3,0-0.4L17.7,39.7z"/>
		<path class="st0" d="M34.4,7.4l0,0.9C36.2,8.1,36.2,7.8,34.4,7.4z"/>
		<path class="st0" d="M22.6,8.9c-0.2-0.4-0.6-0.6-1-0.4C21.5,9,21.2,9.1,20.7,9C20.7,10.1,21.4,10.1,22.6,8.9z"/>
		<path class="st0" d="M43.7,13.1l0.1,1.9c1.3,0.8,1.6,0.3,0.9-1.5L43.7,13.1z"/>
		<path class="st0" d="M14.9,31.8c-0.1-0.8-0.6-1.8-1.6-3.2l-0.5,0c0.7,3.1,1.1,4.6,1.4,4.6l0.5,0L14.9,31.8z"/>
		<path class="st0" d="M43.4,37.3L43.4,37.3l-0.3,0l-1,0.9l-0.1,0l-0.1,0l0-0.3l0,0c0-0.5,0.4-0.8,1.2-0.9l0-0.1l-0.4-1.6l0.2-0.8
			l-0.3-0.2l-0.4,0l-0.4,0l0.1,0.8c0.2,2-0.9,3.7-3.3,5l0,0.5l0.2,0.3l0.3,0.3l0.1,0.2l-0.4,0l-0.2,0L38,41l-2.2-1.7
			C34,39.4,32.3,38,30.7,35c0-2,0.1-3,0.3-3.1c1.2-1.3,2.7-2.1,4.4-2.5c0.2,0,0.4-0.1,0.5-0.1c0.2,0,0.4-0.1,0.7-0.1
			c1.1-0.1,2.4,0.4,3.8,1.6l0.8-0.1l-0.5-3.2l0-0.6c0-0.1,0-0.2,0-0.3c0,0,0-0.1,0-0.1c0-1.1,0.4-2.2,1.2-3.3
			c0.1-0.1,0.1-0.2,0.2-0.2c0.4-0.5,0.8-1,1.4-1.6l0-0.5c-0.1-1.7-1.3-3.7-3.4-5.9l0-0.8c-0.6-0.3-0.8-1.1-0.6-2.3L38,12l-0.1-1.4
			c-0.5,0.1-0.8,0-1-0.4c-0.7,0.2-1.2,0.1-1.4-0.4c-1.7,0.8-2.8,0.8-3.5,0.2c-0.3,0.2-0.6,0.3-0.9,0.4c-1.9-0.5-3.1-0.8-3.7-0.8
			c-3.8,1-6.4,2-7.8,3c0.2-0.4,0.3-0.8,0.3-1.2c-0.9,0.5-1.4,0.2-1.5-0.9l-0.5,0c0.2,0.9-0.1,1.5-0.9,1.6c0.5,0.7,0.7,1.5,0.6,2.2
			c-0.1,0.1-0.2,0.1-0.3,0.2C15.9,15,15,16,14.5,17.5c-0.6,0.8-1,1.7-1.3,2.7c-0.3,1.1-0.4,2.3-0.4,3.5l0,0.3c0.2,0,0.3,0.1,0.5,0.3
			c0.5,0.6,1.2,2,1.9,4.2c0.5,0,0.8,0.3,0.9,1l0.2-0.1l0.9-0.6l0.9-0.6l0.3,0.3l0,0.3c-0.9,0.4-1.4,0.8-1.6,1.2
			c0,0.1-0.1,0.1-0.1,0.2c0,0,0,0.1,0,0.1l0,0.3l0.6,0.5l1-0.4l4.3-0.1l0.5,0l1.6-0.1c0.2,0.1,0.4,0.1,0.5,0.2
			c0.2,0.1,0.4,0.3,0.6,0.5c0.7,0.7,1.1,1.7,1.2,3.2c-0.6,1.9-1.4,3.4-2.3,4.2c-0.4,0.4-0.9,0.7-1.4,0.9c-0.3,0.1-0.5,0.2-0.8,0.2
			c0,0.1-0.1,0.2-0.3,0.3c-0.3,0.2-0.8,0.4-1.5,0.7l-2.2-0.3l-0.2,0l-0.2,0.3l-0.3,0c-0.2,0-0.4,0-0.6-0.1c-0.7-0.3-1.5-1.3-2.2-3
			l-0.3-0.2l-0.3,0l-0.2,0.3l0,0.6c0.1,1.2,0.7,2.4,1.7,3.7c0.1,0.1,0.1,0.2,0.2,0.3l0,0.5l0,2.3l0.3,0.8l2.3-0.2l1.5-1.5l0.3,0
			l1.9,1.2l0,0.3l-0.7,0.3l0.1,0.8c0.6,0.7,0.9,1.5,1,2.4l0,0.5l0.8-0.1l0.7-0.6l0.3,0l0.3,0.3l1.4,1.2l0.1,0l0.7-0.1l1.2-1.5l1.4,1
			l1.3-1.2l1.4,1.3l1-0.1c0-0.7,0.3-1.1,0.7-1.2c0.9,0.8,1.6,1.2,2,1.2l0.2-0.3l-0.3-3.3l-0.6-0.5l-0.2,0.3l0-0.3
			c-0.1-0.8,0.4-1.8,1.3-2.9l0.3,0l0,0.3c-0.1,0.7-0.5,1.1-1,1.2l0,0.6l0.5,0l0.7-0.6l2.4,0.6l2-1l-0.3-0.8c0.3-0.5,0.6-0.9,0.8-1.4
			c0,0,0-0.1,0.1-0.1c0.3-0.6,0.5-1.2,0.7-1.8c0-0.1,0.1-0.2,0.1-0.4c0-0.1,0.1-0.2,0.1-0.3c0.1-0.5,0.2-1,0.2-1.5
			C43.4,37.6,43.4,37.5,43.4,37.3C43.4,37.3,43.4,37.3,43.4,37.3z M18.5,12.9l0-0.5C18.9,12.6,18.9,12.7,18.5,12.9z M31.2,47.1
			l-0.5,0c-0.4,0-0.7-0.3-0.9-1l-0.3,0L28,46.5c-0.3,0-0.6-0.1-0.9-0.4c-0.5-0.5-1-1.5-1.5-3l0-0.3c0.6-3.6,1.9-5.4,3.8-5.6
			c0.3,0.2,0.6,0.3,0.9,0.5c0.1,0,0.1,0.1,0.2,0.2c0.1,0.1,0.2,0.1,0.2,0.2c1.2,0.9,1.8,2.1,1.9,3.6l0.1,1.6
			C32.8,43.9,32.3,45.1,31.2,47.1z"/>
		<path class="st0" d="M42.9,17.5c-0.2-0.4-0.5-0.5-0.8-0.4C42.3,17.5,42.6,17.7,42.9,17.5z"/>
		<path class="st0" d="M43.8,22.9h-0.4C43.5,23.7,43.6,23.7,43.8,22.9z"/>
		<path class="st0" d="M44.2,20.4h-0.4C43.9,21.3,44,21.3,44.2,20.4z"/>
		<path class="st0" d="M44.2,19.6V20C45,19.9,45,19.7,44.2,19.6z"/>
		<path class="st0" d="M42.6,44.1c-0.2,0.4-0.5,0.7-0.9,0.8l0,0.8c1-0.1,1.4-0.6,1.3-1.6L42.6,44.1z"/>
		<path class="st0" d="M43.5,42.4c0.2,0.4,0.4,0.5,0.8,0.4C44.1,42.5,43.8,42.4,43.5,42.4z"/>
		<path class="st0" d="M16.4,30.6V31C16.8,30.9,16.8,30.7,16.4,30.6z"/>
		<path class="st0" d="M17.2,32.2h-0.4C16.9,33.1,17.1,33.1,17.2,32.2z"/>
		<path class="st0" d="M18,31c-0.2,0.4-0.4,0.5-0.8,0.4v0.4C18.3,31.7,18.6,31.4,18,31z"/>
		<path class="st0" d="M19.3,47.1l-0.6,0C18.9,47.8,19.1,47.8,19.3,47.1z"/>
		<path class="st0" d="M19.9,47.1c-0.1,0.7,0.1,1.1,0.7,1.2C20.7,47.6,20.5,47.2,19.9,47.1z"/>
		<path class="st0" d="M21.2,51.6l0,0.6C21.8,52,21.8,51.8,21.2,51.6z"/>
	</g>
	<g>
		<path class="st0" d="M40.6,60c-0.5,0-0.8-0.4-0.8-0.8c0-0.4,0.3-0.8,0.8-0.8c0.5,0,0.8,0.4,0.8,0.8C41.4,59.6,41.1,60,40.6,60z
			 M40.6,58.5c-0.4,0-0.7,0.3-0.7,0.7c0,0.4,0.3,0.7,0.7,0.7c0.4,0,0.7-0.3,0.7-0.7C41.3,58.8,41,58.5,40.6,58.5z M40.6,59.3h-0.2
			v0.4h-0.1v-0.9h0.3c0.2,0,0.3,0.1,0.3,0.3c0,0.1-0.1,0.2-0.2,0.3l0.3,0.4h-0.1L40.6,59.3z M40.4,58.8v0.4h0.1
			c0.2,0,0.2-0.1,0.2-0.2c0-0.1,0-0.2-0.2-0.2H40.4z"/>
	</g>
</g>
</svg>
