<?xml version="1.0" encoding="utf-8"?>
<!-- Generator: Adobe Illustrator 19.2.1, SVG Export Plug-In . SVG Version: 6.00 Build 0)  -->
<!DOCTYPE svg PUBLIC "-//W3C//DTD SVG 1.1//EN" "http://www.w3.org/Graphics/SVG/1.1/DTD/svg11.dtd">
<svg version="1.1" id="Layer_1" xmlns="http://www.w3.org/2000/svg" xmlns:xlink="http://www.w3.org/1999/xlink" x="0px" y="0px"
	 viewBox="0 0 319.9 43" style="enable-background:new 0 0 319.9 43;" xml:space="preserve">
<style type="text/css">
	.st0{fill:#FFFFFF;}
</style>
<g>
	<path class="st0" d="M14.3,0.4c0.2,0,0.4,0.2,0.4,0.4v16.5c0,0.2-0.1,0.3-0.4,0.3H10c-0.2,0-0.4-0.1-0.5-0.3L5.1,9.5v7.7
		c0,0.2-0.2,0.3-0.4,0.3H0.4c-0.2,0-0.4-0.2-0.4-0.3V0.8c0-0.2,0.2-0.4,0.4-0.4h4.3c0.2,0,0.5,0.1,0.6,0.3l4.3,7.8V0.8
		c0-0.2,0.2-0.4,0.3-0.4H14.3z"/>
	<path class="st0" d="M35.3,17.3c0.1,0.2,0,0.3-0.2,0.3h-4.9c-0.2,0-0.4-0.1-0.5-0.3l-0.8-2.6h-4.7l-0.8,2.6
		c-0.1,0.2-0.3,0.3-0.5,0.3H18c-0.2,0-0.3-0.2-0.2-0.3l5.6-16.6c0.1-0.2,0.3-0.3,0.6-0.3h5.1c0.2,0,0.5,0.2,0.6,0.3L35.3,17.3z
		 M26.5,6.4l-1.3,4.7h2.7L26.5,6.4z"/>
	<path class="st0" d="M44.6,0.4c4.4,0,7,2.4,7,5.9s-2.6,5.9-7,5.9h-1v5c0,0.2-0.2,0.3-0.4,0.3h-4.5c-0.2,0-0.4-0.2-0.4-0.3V0.8
		c0-0.2,0.2-0.4,0.4-0.4H44.6z M44.8,7.8c0.9,0,1.5-0.6,1.5-1.5c0-0.9-0.6-1.5-1.5-1.5h-1.3v2.9H44.8z"/>
	<path class="st0" d="M68,0.4c0.2,0,0.4,0.2,0.3,0.4L68,4.5c0,0.2-0.2,0.3-0.4,0.3h-3.7v12.4c0,0.2-0.1,0.3-0.3,0.3h-4.4
		c-0.2,0-0.4-0.2-0.4-0.3V4.9h-4.1c-0.2,0-0.3-0.1-0.3-0.3V0.8c0-0.2,0.2-0.4,0.3-0.4H68z"/>
	<path class="st0" d="M79.6,18c-5.3,0-8.9-3.6-8.9-9c0-5.4,3.5-9,8.9-9c5.3,0,8.9,3.6,8.9,9C88.5,14.4,85,18,79.6,18z M79.6,5
		c-2,0-3.4,1.6-3.4,4c0,2.4,1.4,4,3.4,4c2,0,3.4-1.6,3.4-4C83.1,6.6,81.7,5,79.6,5z"/>
	<path class="st0" d="M114.6,0.4c0.2,0,0.4,0.2,0.3,0.4l-4.5,16.4c-0.1,0.2-0.3,0.4-0.5,0.4h-4.3c-0.2,0-0.5-0.2-0.6-0.4l-2.3-8.8
		l-2.3,8.8c0,0.2-0.4,0.4-0.6,0.4h-4.3c-0.2,0-0.5-0.2-0.5-0.4L90.3,0.8c-0.1-0.2,0-0.4,0.3-0.4h5.6c0.2,0,0.5,0.2,0.6,0.4l1.4,7.5
		l1.9-7.5c0.1-0.2,0.4-0.4,0.7-0.4h3.6c0.3,0,0.6,0.2,0.7,0.4l1.9,7.5l1.4-7.5c0-0.2,0.3-0.4,0.6-0.4H114.6z"/>
	<path class="st0" d="M132.4,0.4c0.2,0,0.4,0.2,0.4,0.4v16.5c0,0.2-0.1,0.3-0.4,0.3h-4.3c-0.2,0-0.4-0.1-0.5-0.3l-4.3-7.8v7.7
		c0,0.2-0.2,0.3-0.4,0.3h-4.4c-0.2,0-0.4-0.2-0.4-0.3V0.8c0-0.2,0.2-0.4,0.4-0.4h4.3c0.2,0,0.5,0.1,0.6,0.3l4.3,7.8V0.8
		c0-0.2,0.2-0.4,0.3-0.4H132.4z"/>
	<path class="st0" d="M157.1,17.2c0.1,0.2,0,0.4-0.3,0.4h-5.3c-0.2,0-0.5-0.2-0.6-0.4l-2.6-5.4H148v5.5c0,0.2-0.2,0.3-0.4,0.3h-4.4
		c-0.2,0-0.4-0.2-0.4-0.3V0.8c0-0.2,0.2-0.4,0.4-0.4h6.6c3.8,0,6.4,2.2,6.4,5.6c0,2-1.2,4-3.1,4.8L157.1,17.2z M149.5,7.5
		c0.8,0,1.4-0.5,1.4-1.3s-0.6-1.3-1.4-1.3H148v2.6H149.5z"/>
	<path class="st0" d="M168.1,18c-5.3,0-8.9-3.6-8.9-9c0-5.4,3.5-9,8.9-9c5.3,0,8.9,3.6,8.9,9C177,14.4,173.5,18,168.1,18z M168.1,5
		c-2,0-3.4,1.6-3.4,4c0,2.4,1.4,4,3.4,4c2,0,3.4-1.6,3.4-4C171.6,6.6,170.2,5,168.1,5z"/>
	<path class="st0" d="M190.5,13.1c0.2,0,0.3,0.2,0.3,0.3l-0.3,3.8c0,0.2-0.2,0.3-0.4,0.3h-9c-0.2,0-0.4-0.2-0.4-0.3V0.8
		c0-0.2,0.2-0.4,0.4-0.4h4.4c0.2,0,0.4,0.2,0.4,0.4v12.4H190.5z"/>
	<path class="st0" d="M204.2,13.1c0.2,0,0.3,0.2,0.3,0.3l-0.3,3.8c0,0.2-0.2,0.3-0.4,0.3h-9c-0.2,0-0.4-0.2-0.4-0.3V0.8
		c0-0.2,0.2-0.4,0.4-0.4h4.4c0.2,0,0.4,0.2,0.4,0.4v12.4H204.2z"/>
	<path class="st0" d="M220.1,13.1c0.2,0,0.4,0.2,0.4,0.3v3.8c0,0.2-0.2,0.3-0.4,0.3h-11.6c-0.2,0-0.4-0.2-0.4-0.4V0.8
		c0-0.2,0.1-0.4,0.3-0.4h11.4c0.2,0,0.4,0.2,0.4,0.4v3.8c0,0.2-0.2,0.4-0.4,0.4h-6.5v2h5.3c0.2,0,0.3,0.2,0.3,0.3l-0.3,3.5
		c0,0.1-0.2,0.3-0.4,0.3h-4.8v2.1H220.1z"/>
	<path class="st0" d="M238.6,17.2c0.1,0.2,0,0.4-0.3,0.4H233c-0.2,0-0.5-0.2-0.6-0.4l-2.6-5.4h-0.3v5.5c0,0.2-0.2,0.3-0.4,0.3h-4.4
		c-0.2,0-0.4-0.2-0.4-0.3V0.8c0-0.2,0.2-0.4,0.4-0.4h6.6c3.8,0,6.4,2.2,6.4,5.6c0,2-1.2,4-3.1,4.8L238.6,17.2z M231,7.5
		c0.9,0,1.4-0.5,1.4-1.3s-0.6-1.3-1.4-1.3h-1.5v2.6H231z"/>
	<path class="st0" d="M262.6,7.1c0.2,0,0.4,0.2,0.4,0.3v7.9c0,0.2-0.1,0.5-0.3,0.6c-1.5,1.3-3.8,2-6.2,2c-5.4,0-9-3.6-9-9
		c0-5.4,3.6-9,9-9c1.8,0,3.8,0.5,5.2,1.4c0.2,0.1,0.3,0.3,0.2,0.5l-1.2,3.7c-0.1,0.2-0.2,0.2-0.5,0.2c-1-0.5-2.3-0.9-3.6-0.9
		c-2.3,0-3.8,1.6-3.8,4.1c0,2.5,1.5,4.1,3.8,4.1c0.9,0,1.6-0.2,1.8-0.5v-1.5h-2.3c-0.2,0-0.4-0.1-0.4-0.3l-0.3-3.4
		c0-0.2,0.1-0.4,0.4-0.4H262.6z M258.6,12.3L258.6,12.3L258.6,12.3z"/>
	<path class="st0" d="M271.9,0.4c0.2,0,0.4,0.2,0.4,0.4v16.5c0,0.2-0.2,0.3-0.4,0.3h-4.4c-0.2,0-0.4-0.2-0.4-0.3V0.8
		c0-0.2,0.2-0.4,0.4-0.4H271.9z"/>
	<path class="st0" d="M290.8,17.2c0.1,0.2-0.1,0.4-0.3,0.4h-5.3c-0.2,0-0.5-0.2-0.6-0.4l-2.6-5.4h-0.3v5.5c0,0.2-0.2,0.3-0.4,0.3
		h-4.4c-0.2,0-0.4-0.2-0.4-0.3V0.8c0-0.2,0.2-0.4,0.4-0.4h6.6c3.8,0,6.4,2.2,6.4,5.6c0,2-1.2,4-3.1,4.8L290.8,17.2z M283.2,7.5
		c0.8,0,1.4-0.5,1.4-1.3s-0.6-1.3-1.4-1.3h-1.5v2.6H283.2z"/>
	<path class="st0" d="M304.1,13.1c0.2,0,0.3,0.2,0.3,0.3l-0.3,3.8c0,0.2-0.2,0.3-0.4,0.3h-9c-0.2,0-0.4-0.2-0.4-0.3V0.8
		c0-0.2,0.2-0.4,0.4-0.4h4.4c0.2,0,0.4,0.2,0.4,0.4v12.4H304.1z"/>
	<path class="st0" d="M309.3,12.4c0.1-0.2,0.2-0.3,0.5-0.2c1.1,0.6,2.5,1.1,3.5,1.2c0.8,0,1.3-0.4,1.3-1c0-1.5-7-1.4-7-6.8
		c0-3.3,2.5-5.6,6.3-5.6c1.8,0,4,0.7,5.6,1.8c0.2,0.1,0.3,0.3,0.2,0.5l-1.6,3.5C318,6,317.9,6.1,317.7,6c-1.2-0.7-2.7-1.2-3.5-1.3
		c-0.8,0-1.3,0.4-1.3,0.9c0,1.5,7.1,1.4,7.1,6.9c0,3.3-2.6,5.5-6.4,5.5c-2.1,0-4.3-0.7-5.5-1.6c-0.2-0.2-0.3-0.3-0.2-0.5L309.3,12.4
		z"/>
	<path class="st0" d="M70.9,25.4c3.3,0,5.4,2,5.4,4.9c0,1.8-0.9,3.1-2.2,3.5c1.6,0.4,2.6,1.9,2.6,4c0,2.9-2.2,4.9-5.4,4.9h-7.9
		c-0.2,0-0.4-0.2-0.4-0.3V25.8c0-0.2,0.2-0.4,0.4-0.4H70.9z M69.8,32.2c0.8,0,1.2-0.4,1.2-1.1s-0.5-1.1-1.2-1.1h-1.6v2.3H69.8z
		 M70.2,38.2c0.7,0,1.2-0.5,1.2-1.2s-0.5-1.2-1.2-1.2h-2v2.4H70.2z"/>
	<path class="st0" d="M95,42.2c0.1,0.2,0,0.4-0.3,0.4h-5.3c-0.2,0-0.5-0.2-0.6-0.4l-2.6-5.4h-0.3v5.5c0,0.2-0.2,0.3-0.4,0.3h-4.4
		c-0.2,0-0.4-0.2-0.4-0.3V25.8c0-0.2,0.2-0.4,0.4-0.4h6.6c3.8,0,6.4,2.2,6.4,5.6c0,2-1.2,4-3.1,4.8L95,42.2z M87.3,32.5
		c0.8,0,1.4-0.5,1.4-1.3s-0.6-1.3-1.4-1.3h-1.5v2.6H87.3z"/>
	<path class="st0" d="M114.7,42.3c0.1,0.2,0,0.3-0.2,0.3h-4.9c-0.2,0-0.4-0.1-0.5-0.3l-0.8-2.6h-4.7l-0.8,2.6
		c-0.1,0.2-0.3,0.3-0.5,0.3h-4.9c-0.2,0-0.3-0.2-0.2-0.3l5.6-16.6c0.1-0.2,0.3-0.3,0.6-0.3h5.1c0.2,0,0.5,0.2,0.6,0.3L114.7,42.3z
		 M105.9,31.4l-1.3,4.7h2.7L105.9,31.4z"/>
	<path class="st0" d="M132.1,25.4c0.2,0,0.4,0.2,0.4,0.4v16.5c0,0.2-0.1,0.3-0.4,0.3h-4.3c-0.2,0-0.4-0.1-0.5-0.3l-4.3-7.8v7.7
		c0,0.2-0.2,0.3-0.4,0.3h-4.4c-0.2,0-0.4-0.2-0.4-0.3V25.8c0-0.2,0.2-0.4,0.4-0.4h4.3c0.2,0,0.5,0.1,0.6,0.3l4.3,7.8v-7.7
		c0-0.2,0.2-0.4,0.3-0.4H132.1z"/>
	<path class="st0" d="M142.9,25.4c5.3,0,8.8,3.4,8.8,8.6c0,5.1-3.5,8.6-8.8,8.6h-5.8c-0.2,0-0.4-0.2-0.4-0.4V25.8
		c0-0.2,0.2-0.4,0.4-0.4H142.9z M143.2,38.1c1.9,0,3.2-1.6,3.2-4.1s-1.3-4.1-3.2-4.1h-1.3v8.2H143.2z"/>
	<path class="st0" d="M177.7,42.3c0.1,0.2,0,0.3-0.2,0.3h-4.9c-0.2,0-0.4-0.1-0.5-0.3l-0.8-2.6h-4.7l-0.8,2.6
		c-0.1,0.2-0.3,0.3-0.5,0.3h-4.9c-0.2,0-0.3-0.2-0.2-0.3l5.6-16.6c0.1-0.2,0.3-0.3,0.6-0.3h5.1c0.2,0,0.5,0.2,0.6,0.3L177.7,42.3z
		 M168.9,31.4l-1.3,4.7h2.7L168.9,31.4z"/>
	<path class="st0" d="M181.6,37.4c0.1-0.2,0.2-0.3,0.5-0.2c1.1,0.6,2.5,1.1,3.5,1.2c0.8,0,1.3-0.4,1.3-1c0-1.5-7-1.4-7-6.8
		c0-3.3,2.5-5.6,6.3-5.6c1.8,0,4,0.7,5.6,1.8c0.2,0.1,0.3,0.3,0.2,0.5l-1.6,3.5c-0.1,0.2-0.2,0.3-0.4,0.2c-1.2-0.7-2.6-1.2-3.5-1.3
		c-0.8,0-1.3,0.4-1.3,0.9c0,1.5,7.1,1.4,7.1,6.9c0,3.3-2.6,5.5-6.4,5.5c-2.1,0-4.3-0.7-5.5-1.6c-0.2-0.2-0.3-0.3-0.2-0.5L181.6,37.4
		z"/>
	<path class="st0" d="M197.5,37.4c0.1-0.2,0.2-0.3,0.5-0.2c1.1,0.6,2.5,1.1,3.5,1.2c0.8,0,1.3-0.4,1.3-1c0-1.5-7-1.4-7-6.8
		c0-3.3,2.5-5.6,6.3-5.6c1.8,0,4,0.7,5.6,1.8c0.2,0.1,0.3,0.3,0.2,0.5l-1.6,3.5c-0.1,0.2-0.2,0.3-0.4,0.2c-1.2-0.7-2.6-1.2-3.5-1.3
		c-0.8,0-1.3,0.4-1.3,0.9c0,1.5,7.1,1.4,7.1,6.9c0,3.3-2.6,5.5-6.4,5.5c-2.1,0-4.3-0.7-5.5-1.6c-0.2-0.2-0.3-0.3-0.2-0.5L197.5,37.4
		z"/>
	<path class="st0" d="M224,38.1c0.2,0,0.4,0.2,0.4,0.3v3.8c0,0.2-0.2,0.3-0.4,0.3h-11.6c-0.2,0-0.4-0.2-0.4-0.4V25.8
		c0-0.2,0.1-0.4,0.4-0.4h11.4c0.2,0,0.4,0.2,0.4,0.4v3.8c0,0.2-0.2,0.4-0.4,0.4h-6.5v2h5.3c0.2,0,0.3,0.2,0.3,0.3l-0.3,3.5
		c0,0.1-0.2,0.3-0.4,0.3h-4.8v2.1H224z"/>
	<path class="st0" d="M241.2,25.4c0.2,0,0.4,0.2,0.3,0.4l-0.4,3.8c0,0.2-0.2,0.3-0.4,0.3H237v12.4c0,0.2-0.1,0.3-0.3,0.3h-4.4
		c-0.2,0-0.4-0.2-0.4-0.3V29.9h-4.1c-0.2,0-0.3-0.1-0.3-0.3v-3.8c0-0.2,0.2-0.4,0.3-0.4H241.2z"/>
	<path class="st0" d="M246.3,37.4c0.1-0.2,0.2-0.3,0.4-0.2c1.2,0.6,2.5,1.1,3.5,1.2c0.8,0,1.3-0.4,1.3-1c0-1.5-7-1.4-7-6.8
		c0-3.3,2.5-5.6,6.3-5.6c1.8,0,4,0.7,5.6,1.8c0.2,0.1,0.3,0.3,0.2,0.5l-1.6,3.5c-0.1,0.2-0.2,0.3-0.4,0.2c-1.2-0.7-2.6-1.2-3.5-1.3
		c-0.8,0-1.3,0.4-1.3,0.9c0,1.5,7.1,1.4,7.1,6.9c0,3.3-2.6,5.5-6.4,5.5c-2.1,0-4.3-0.7-5.5-1.6c-0.2-0.2-0.3-0.3-0.2-0.5L246.3,37.4
		z"/>
</g>
</svg>
